
<global>
amp_veltrack=0
ampeg_release=3.50
</global>

<group>
group_label=Group

<region>
hikey=g#5
hivel=84
lokey=g5
lovel=0
pitch_keycenter=g#5
sample=Violas_snap_pizz_MF_G#5.opus
</region>

<region>
hikey=g#4
hivel=84
lokey=g4
lovel=0
pitch_keycenter=g#4
sample=Violas_snap_pizz_MF_G#4.opus
</region>

<region>
hikey=g#3
hivel=84
lokey=g3
lovel=0
pitch_keycenter=g#3
sample=Violas_snap_pizz_MF_G#3.opus
</region>

<region>
hikey=f#5
hivel=84
lokey=f5
lovel=0
offset=1314
pitch_keycenter=f#5
sample=Violas_snap_pizz_MF_F#5.opus
</region>

<region>
hikey=f#4
hivel=84
lokey=f4
lovel=0
pitch_keycenter=f#4
sample=Violas_snap_pizz_MF_F#4.opus
</region>

<region>
hikey=f#3
hivel=84
lokey=f3
lovel=0
offset=80
pitch_keycenter=f#3
sample=Violas_snap_pizz_MF_F#3.opus
</region>

<region>
hikey=e5
hivel=84
lokey=d#5
lovel=0
pitch_keycenter=e5
sample=Violas_snap_pizz_MF_E5.opus
</region>

<region>
hikey=e4
hivel=84
lokey=d#4
lovel=0
offset=725
pitch_keycenter=e4
sample=Violas_snap_pizz_MF_E4.opus
</region>

<region>
hikey=e3
hivel=84
lokey=d#3
lovel=0
pitch_keycenter=e3
sample=Violas_snap_pizz_MF_E3.opus
</region>

<region>
hikey=d5
hivel=84
lokey=c#5
lovel=0
pitch_keycenter=d5
sample=Violas_snap_pizz_MF_D5.opus
</region>

<region>
hikey=d4
hivel=84
lokey=c#4
lovel=0
pitch_keycenter=d4
sample=Violas_snap_pizz_MF_D4.opus
</region>

<region>
hikey=d3
hivel=84
lokey=c#3
lovel=0
offset=3917
pitch_keycenter=d3
sample=Violas_snap_pizz_MF_D3.opus
</region>

<region>
hikey=C#6
hivel=84
lokey=b5
lovel=0
offset=10790
pitch_keycenter=C6
sample=Violas_snap_pizz_MF_C6.opus
</region>

<region>
hikey=c5
hivel=84
lokey=b4
lovel=0
offset=7371
pitch_keycenter=c5
sample=Violas_snap_pizz_MF_C5.opus
</region>

<region>
hikey=c4
hivel=84
lokey=b3
lovel=0
pitch_keycenter=c4
sample=Violas_snap_pizz_MF_C4.opus
</region>

<region>
hivel=84
key=c3
lovel=0
sample=Violas_snap_pizz_MF_C3.opus
</region>

<region>
hikey=a#5
hivel=84
lokey=a5
lovel=0
pitch_keycenter=a#5
sample=Violas_snap_pizz_MF_A#5.opus
</region>

<region>
hikey=a#4
hivel=84
lokey=a4
lovel=0
pitch_keycenter=a#4
sample=Violas_snap_pizz_MF_A#4.opus
</region>

<region>
hikey=a#3
hivel=84
lokey=a3
lovel=0
pitch_keycenter=a#3
sample=Violas_snap_pizz_MF_A#3.opus
</region>

<region>
hikey=g#5
hivel=127
lokey=g5
lovel=85
pitch_keycenter=g#5
sample=Violas_snap_pizz_FF_G#5.opus
</region>

<region>
hikey=g#4
hivel=127
lokey=g4
lovel=85
pitch_keycenter=g#4
sample=Violas_snap_pizz_FF_G#4.opus
</region>

<region>
hikey=g#3
hivel=127
lokey=g3
lovel=85
offset=543
pitch_keycenter=g#3
sample=Violas_snap_pizz_FF_G#3.opus
</region>

<region>
hikey=f#5
hivel=127
lokey=f5
lovel=85
pitch_keycenter=f#5
sample=Violas_snap_pizz_FF_F#5.opus
</region>

<region>
hikey=f#4
hivel=127
lokey=f4
lovel=85
pitch_keycenter=f#4
sample=Violas_snap_pizz_FF_F#4.opus
</region>

<region>
hikey=f#3
hivel=127
lokey=f3
lovel=85
pitch_keycenter=f#3
sample=Violas_snap_pizz_FF_F#3.opus
</region>

<region>
hikey=e5
hivel=127
lokey=d#5
lovel=85
pitch_keycenter=e5
sample=Violas_snap_pizz_FF_E5.opus
</region>

<region>
hikey=e4
hivel=127
lokey=d#4
lovel=85
pitch_keycenter=e4
sample=Violas_snap_pizz_FF_E4.opus
</region>

<region>
hikey=e3
hivel=127
lokey=d#3
lovel=85
offset=671
pitch_keycenter=e3
sample=Violas_snap_pizz_FF_E3.opus
</region>

<region>
hikey=d5
hivel=127
lokey=c#5
lovel=85
pitch_keycenter=d5
sample=Violas_snap_pizz_FF_D5.opus
</region>

<region>
hikey=d4
hivel=127
lokey=c#4
lovel=85
pitch_keycenter=d4
sample=Violas_snap_pizz_FF_D4.opus
</region>

<region>
hikey=d3
hivel=127
lokey=c#3
lovel=85
offset=3356
pitch_keycenter=d3
sample=Violas_snap_pizz_FF_D3.opus
</region>

<region>
hikey=C#6
hivel=127
lokey=b5
lovel=85
offset=1419
pitch_keycenter=c6
sample=Violas_snap_pizz_FF_C6.opus
</region>

<region>
hikey=c5
hivel=127
lokey=b4
lovel=85
pitch_keycenter=c5
sample=Violas_snap_pizz_FF_C5.opus
</region>

<region>
hikey=c4
hivel=127
lokey=b3
lovel=85
offset=28
pitch_keycenter=c4
sample=Violas_snap_pizz_FF_C4.opus
</region>

<region>
hivel=127
key=c3
lovel=85
offset=1879
sample=Violas_snap_pizz_FF_C3.opus
</region>

<region>
hikey=a#5
hivel=127
lokey=a5
lovel=85
pitch_keycenter=a#5
sample=Violas_snap_pizz_FF_A#5.opus
</region>

<region>
hikey=a#4
hivel=127
lokey=a4
lovel=85
pitch_keycenter=a#4
sample=Violas_snap_pizz_FF_A#4.opus
</region>

<region>
hikey=a#3
hivel=127
lokey=a3
lovel=85
pitch_keycenter=a#3
sample=Violas_snap_pizz_FF_A#3.opus
</region>
</group>